<svg width="24" height="24" viewBox="0 0 24 24" fill="none" xmlns="http://www.w3.org/2000/svg">
<rect x="0.5" y="0.5" width="23" height="23" stroke="#272744"/>
<circle cx="12" cy="12" r="11.5" stroke="#272744"/>
<path d="M4 7H5.4706V14.9208H4V7Z" fill="#272744"/>
<path d="M10.2482 15C9.62224 15 9.06039 14.868 8.56265 14.604C8.06491 14.3399 7.67652 13.9741 7.39749 13.5064C7.11845 13.0311 6.97893 12.4955 6.97893 11.8996C6.97893 11.3036 7.11845 10.7718 7.39749 10.3041C7.67652 9.8364 8.06114 9.47053 8.55134 9.20651C9.04908 8.94248 9.6147 8.81047 10.2482 8.81047C10.844 8.81047 11.3643 8.93116 11.8093 9.17256C12.2618 9.41396 12.6011 9.76096 12.8274 10.2136L11.7414 10.8472C11.568 10.5681 11.3492 10.3607 11.0853 10.2249C10.8289 10.0816 10.5461 10.0099 10.2369 10.0099C9.70897 10.0099 9.27156 10.1834 8.92465 10.5304C8.57774 10.8699 8.40428 11.3263 8.40428 11.8996C8.40428 12.4729 8.57397 12.9331 8.91333 13.2801C9.26025 13.6195 9.70142 13.7893 10.2369 13.7893C10.5461 13.7893 10.8289 13.7214 11.0853 13.5856C11.3492 13.4422 11.568 13.231 11.7414 12.9519L12.8274 13.5856C12.5936 14.0382 12.2505 14.389 11.798 14.6379C11.353 14.8793 10.8364 15 10.2482 15Z" fill="#272744"/>
<path d="M17.4774 8.81047C18.2391 8.81047 18.8499 9.033 19.31 9.47808C19.77 9.92315 20 10.5832 20 11.4583V14.9208H18.586V11.6393C18.586 11.1113 18.4615 10.7152 18.2127 10.4512C17.9638 10.1796 17.6093 10.0438 17.1493 10.0438C16.6289 10.0438 16.2179 10.2023 15.9163 10.5191C15.6146 10.8284 15.4638 11.2772 15.4638 11.8656V14.9208H14.0497V8.87836H15.3959V9.65912C15.6297 9.38001 15.9238 9.16879 16.2783 9.02546C16.6327 8.88213 17.0324 8.81047 17.4774 8.81047Z" fill="#272744"/>
</svg>
