<svg width="32" height="32" viewBox="0 0 32 32" fill="none" xmlns="http://www.w3.org/2000/svg">
<circle cx="16" cy="16" r="16" fill="#F9F9F9"/>
<circle cx="16" cy="16" r="12.8" fill="white"/>
<path d="M5.83043 8.17706C4.81645 9.49494 4.07164 10.9994 3.63843 12.6048H10.2571L5.83043 8.17706Z" fill="#0052B4"/>
<path d="M28.208 12.6037C27.7746 10.9987 27.0298 9.49463 26.016 8.17706L21.5894 12.6037H28.208Z" fill="#0052B4"/>
<path d="M3.63843 19.2427C4.0718 20.8477 4.8166 22.3518 5.83043 23.6693L10.2571 19.2427H3.63843Z" fill="#0052B4"/>
<path d="M23.6693 5.8304C22.3518 4.81655 20.8477 4.07174 19.2427 3.6384V10.2571L23.6693 5.8304Z" fill="#0052B4"/>
<path d="M8.177 26.016C9.49457 27.0298 10.9987 27.7746 12.6037 28.208V21.5893L8.177 26.016Z" fill="#0052B4"/>
<path d="M12.6037 3.6384C10.9987 4.07177 9.49457 4.81657 8.177 5.8304L12.6037 10.2571V3.6384Z" fill="#0052B4"/>
<path d="M19.2427 28.208C20.8477 27.7746 22.3518 27.0298 23.6694 26.016L19.2427 21.5893V28.208Z" fill="#0052B4"/>
<path d="M21.5894 19.2427L26.016 23.6693C27.0298 22.3518 27.7746 20.8477 28.208 19.2427H21.5894Z" fill="#0052B4"/>
<path d="M28.5397 14.2645H17.5839V3.30773C16.4821 3.16411 15.3663 3.16411 14.2645 3.30773V14.2645H3.30767C3.16405 15.3664 3.16405 16.4822 3.30767 17.584H14.2645V28.5397C15.3663 28.6834 16.4821 28.6834 17.5839 28.5397V17.584H28.5397C28.6833 16.4822 28.6833 15.3664 28.5397 14.2645Z" fill="#D80027"/>
<path d="M19.2437 19.2437L24.9216 24.9216C25.1826 24.6606 25.4315 24.3883 25.6683 24.1045L20.8075 19.2437H19.2427H19.2437Z" fill="#D80027"/>
<path d="M12.6027 19.2437L6.9248 24.9216C7.18578 25.1826 7.45814 25.4315 7.74187 25.6683L12.6027 20.8075V19.2437Z" fill="#D80027"/>
<path d="M12.6057 12.6026L6.92782 6.92798C6.66684 7.18896 6.41795 7.46131 6.18115 7.74504L11.0409 12.6026H12.6057Z" fill="#D80027"/>
<path d="M19.2437 12.6059L24.9215 6.928C24.6605 6.66702 24.3882 6.41814 24.1045 6.18134L19.2437 11.0421V12.6059Z" fill="#D80027"/>
</svg>
