<svg width="58" height="37" viewBox="0 0 58 37" fill="none" xmlns="http://www.w3.org/2000/svg">
<path d="M23.1853 26.0689C23.1853 25.9119 23.1853 25.7555 23.1853 25.52L23.2635 23.9498" fill="white"/>
<path d="M28.0531 29.2892C27.5035 24.9712 24.8338 20.1809 23.4207 18.2181C22.9496 17.5115 22.0851 17.2769 21.3 17.591C20.5934 17.8265 20.1236 18.611 20.2021 19.3176C20.4376 22.8505 20.2793 26.3838 19.7298 29.8382C19.5728 30.6233 20.0441 31.409 20.8292 31.6445C21.6143 31.8016 22.4 31.3302 22.6356 30.5451V30.4669C22.7141 30.0743 22.792 29.6806 22.792 29.2095L24.9127 28.817C24.9912 29.131 24.9906 29.3677 25.0691 29.6818C25.1476 30.4669 25.8542 31.0944 26.6393 31.0158C27.4244 30.9373 28.0518 30.2307 27.9733 29.4456C28.0518 29.3671 28.0531 29.3677 28.0531 29.2892ZM23.1845 26.0691V25.5201L23.2627 23.9499C23.5768 24.578 23.8135 25.2061 24.1276 25.9127L23.1845 26.0691Z" fill="white"/>
<path d="M33.0775 23.4015C33.0775 23.1659 33.0788 22.9298 33.1573 22.7728L33.3137 20.2611V19.9467C33.3137 19.7112 33.3137 19.4754 33.3137 19.2398L33.0775 23.4015ZM39.8306 28.9754C39.3596 25.5994 38.495 22.3805 37.3174 19.1616C36.2968 16.3353 35.0415 13.5871 33.5498 10.9963C33.0788 10.1327 32.0569 9.81925 31.1148 10.0548C30.2512 10.3688 29.624 11.1536 29.7025 12.0957C29.781 17.5914 29.5458 23.1653 28.8392 28.661C28.6822 29.6817 29.3888 30.6232 30.4094 30.7802C30.4094 30.7802 30.4091 30.7802 30.4876 30.7802C31.5083 30.8587 32.4501 30.1524 32.5286 29.1318C32.6071 28.5037 32.6862 27.8756 32.7647 27.169L35.7472 26.8547C35.9042 27.7183 36.0612 28.5828 36.1397 29.3679C36.2182 30.31 37.004 31.0163 37.9461 31.0163C38.0246 31.0163 38.1022 31.0163 38.1807 31.0163C39.2013 30.8593 39.9876 29.996 39.8306 28.9754ZM33.0775 23.4015V22.7728L33.2355 20.2611V19.9467V19.2398C33.3925 19.7109 33.6274 20.1028 33.7844 20.5739C34.0985 21.516 34.4134 22.4581 34.7275 23.3217L33.0775 23.4015Z" fill="white"/>
<path d="M57.9663 31.8787C56.3175 19.8667 50.272 6.75557 47.4456 2.43753C46.582 1.10286 45.0118 0.553902 43.5201 1.10347C42.1069 1.65304 41.2439 3.06622 41.401 4.63642C41.872 10.6032 41.9493 20.4166 40.5361 28.2676C40.2221 29.6808 41.1651 31.1722 42.6568 31.4862C44.07 31.7217 45.405 30.7802 45.719 29.367V29.2888C45.876 28.1112 46.1109 27.0121 46.268 25.7559L51.2929 25.1272C51.9995 27.6395 52.4706 30.1515 52.8631 32.6638C53.0201 33.9985 54.1183 35.0191 55.453 35.0191C55.61 35.0191 55.6885 35.0191 55.8456 35.0191C57.1802 34.7836 58.2018 33.3704 57.9663 31.8787ZM46.7387 20.1805C46.9742 17.5896 46.9749 12.9582 46.9749 12.9582C48.074 15.549 49.6445 19.8677 49.6445 19.8677L46.7387 20.1805Z" fill="white"/>
<path d="M10.3897 29.6021L8.50519 26.1488C8.34817 25.8348 7.95592 25.7557 7.64188 25.9127L5.83554 26.8542C5.5215 27.0112 5.44238 27.405 5.5994 27.719L7.56215 31.3302V31.4084C7.87619 32.0365 7.64127 32.821 7.01319 33.135C6.38511 33.449 5.60063 33.2141 5.28659 32.586L3.87279 29.9164C3.48025 29.1313 2.459 28.8182 1.6739 29.2892C0.888804 29.6818 0.575685 30.7015 1.04674 31.4866L2.459 34.078C3.2441 35.5697 4.81553 36.4333 6.46424 36.4333C7.24934 36.4333 7.95531 36.2754 8.58339 35.8828C10.7032 34.6267 11.5674 31.8788 10.3897 29.6021ZM8.42698 28.1898C8.42698 28.2683 8.34725 28.268 8.34725 28.268H7.87649C7.79798 28.268 7.79829 28.2677 7.79829 28.3462L7.56215 28.7388C7.56215 28.7388 7.48394 28.7384 7.48394 28.817C7.40544 28.817 7.32754 28.8173 7.32754 28.7388L7.1696 28.3462C7.1696 28.2677 7.0914 28.268 7.0914 28.268L6.69885 28.1116C6.69885 28.1116 6.62064 28.1104 6.62064 28.0319C6.62064 27.9533 6.62064 27.8754 6.62064 27.8754L7.01319 27.6393L7.0914 27.5611V27.0904V27.0121H7.1696H7.24934L7.64188 27.2468C7.64188 27.2468 7.64158 27.2468 7.72009 27.2468L8.11264 27.0904H8.19084C8.26935 27.0904 8.26904 27.1682 8.26904 27.2468L8.11264 27.6393V27.719L8.34725 28.0319C8.42576 28.1104 8.42698 28.1898 8.42698 28.1898Z" fill="white"/>
<path d="M5.18993 24.292L5.34695 24.6846L5.42546 24.7631L5.81801 24.8416C5.89652 24.7631 5.97503 24.8416 5.97503 24.8416V24.9201L5.66099 25.2342V25.3127L5.7395 25.7052C5.7395 25.7837 5.7395 25.7837 5.66099 25.7837H5.58248L5.18993 25.6267H5.11142L4.79738 25.8622C4.71887 25.8622 4.71887 25.8622 4.64036 25.8622V25.7837L4.71887 25.3912V25.3127L4.40483 25.0771C4.32632 25.0771 4.32632 24.9986 4.40483 24.9201C4.40483 24.9201 4.40483 24.9201 4.48334 24.9201L4.87589 24.8416C4.87589 24.8416 4.9544 24.8416 4.9544 24.7631L5.11142 24.3706C5.03291 24.292 5.11142 24.2135 5.18993 24.292Z" fill="white"/>
<path d="M7.65679 24.8849V24.9634C7.65679 24.9634 7.65679 24.9634 7.57828 24.9634H7.26424C7.26424 24.9634 7.18573 24.9634 7.18573 25.0419L7.10722 25.3559C7.10722 25.3559 7.02871 25.4344 7.02871 25.3559L6.87169 25.0419C6.87169 25.0419 6.87169 25.0419 6.79318 25.0419H6.47914L6.40063 24.9634L6.71467 24.6493C6.71467 24.6493 6.71467 24.6493 6.71467 24.5708L6.63616 24.2568C6.63616 24.2568 6.63616 24.1783 6.71467 24.1783C6.71467 24.1783 6.71467 24.1783 6.79318 24.1783L7.02871 24.3353H7.10722L7.34275 24.1783H7.42126C7.42126 24.1783 7.42126 24.1783 7.42126 24.2568V24.5708V24.6493L7.65679 24.8849Z" fill="white"/>
<path d="M5.91079 22.6015L5.9893 22.8371C5.9893 22.8371 5.9893 22.8371 6.06781 22.9156L6.30334 22.9941L6.38185 23.0726L6.06781 23.2296C6.06781 23.2296 6.06781 23.2296 6.06781 23.3081V23.5437C6.06781 23.5437 6.06781 23.6222 5.9893 23.6222L5.75377 23.3866C5.75377 23.3866 5.75377 23.3866 5.67526 23.3866L5.43973 23.4652H5.36122C5.36122 23.4652 5.36122 23.4652 5.36122 23.3866L5.43973 23.1511V23.0726L5.28271 22.9156V22.8371H5.51824H5.59675L5.75377 22.6015C5.75377 22.6015 5.83228 22.523 5.91079 22.6015C5.83228 22.6015 5.91079 22.6015 5.91079 22.6015Z" fill="white"/>
<path d="M4.08878 22.1109L4.2458 22.2679C4.2458 22.2679 4.2458 22.2679 4.32431 22.2679L4.48133 22.1894H4.55984L4.48133 22.4249C4.48133 22.4249 4.48133 22.4249 4.48133 22.5034L4.55984 22.6605V22.739H4.32431C4.32431 22.739 4.32431 22.739 4.2458 22.739L4.16729 22.896H4.08878L4.01027 22.6605L3.85325 22.5819C3.85325 22.5819 3.77474 22.5034 3.85325 22.5034L4.01027 22.4249C4.01027 22.4249 4.01027 22.4249 4.01027 22.3464V22.1109C4.01027 22.1109 4.01027 22.0324 4.08878 22.1109C4.08878 22.0324 4.08878 22.1109 4.08878 22.1109Z" fill="white"/>
<path d="M50.978 0.945757V1.41804C50.978 1.41804 50.9777 1.49625 51.0562 1.49625H51.4488C51.4488 1.49625 51.527 1.49594 51.527 1.57445V3.14465C51.527 3.14465 51.5282 3.22285 51.6067 3.22285H52.0775C52.0775 3.22285 52.1557 3.22316 52.1557 3.14465V1.57445C52.1557 1.57445 52.1554 1.49625 52.2339 1.49625H52.6264C52.6264 1.49625 52.7046 1.49655 52.7046 1.41804V0.945757C52.7046 0.945757 52.7049 0.867554 52.6264 0.867554L50.978 0.945757Z" fill="white"/>
<path d="M54.6674 0.94574L54.1184 1.88878H54.0402L53.4897 0.94574H52.9408C52.9408 0.94574 52.8625 0.946966 52.8625 1.02548V3.22283C52.8625 3.22283 52.8622 3.30104 52.9408 3.30104H53.4115C53.4115 3.30104 53.4897 3.30134 53.4897 3.22283V2.28133C53.4897 2.28133 53.4909 2.20313 53.5694 2.20313C53.5694 2.20313 53.5691 2.20313 53.6476 2.20313L54.0402 2.90849C54.0402 2.90849 54.0399 2.90849 54.1184 2.90849H54.2748C54.2748 2.90849 54.276 2.90849 54.3545 2.90849L54.7471 2.20313H54.8253C54.8253 2.20313 54.8253 2.20282 54.8253 2.28133V3.22283C54.8253 3.22283 54.825 3.30104 54.9035 3.30104H55.3743C55.3743 3.30104 55.4525 3.30134 55.4525 3.22283V1.02548C55.4525 1.02548 55.4528 0.94574 55.3743 0.94574H54.6674C54.7459 0.94574 54.6674 0.94574 54.6674 0.94574Z" fill="white"/>
<path d="M18.6333 29.9169C18.0837 29.3674 17.4553 28.8178 16.7487 28.3468C17.2983 27.7187 17.612 26.8548 17.612 26.0697C17.612 24.4209 16.5126 23.0872 14.9424 22.6946C13.3722 22.3021 11.7235 23.0875 11.0169 24.5792C10.5458 25.6783 10.5458 26.9345 11.0169 28.1121C11.5664 29.4468 11.959 30.8594 12.1945 32.194C12.3515 32.9791 13.0578 33.4505 13.8429 33.2935C14.628 33.1365 15.1776 32.3504 15.0206 31.5654C14.9421 31.0943 14.8645 30.702 14.786 30.3095C15.4925 30.702 16.1991 31.2516 16.7487 31.8797C17.2983 32.4293 18.1616 32.4293 18.7897 31.8797C19.1822 31.4086 19.1828 30.4665 18.6333 29.9169ZM14.7078 26.4622C14.4722 26.9333 13.6868 27.0906 13.6083 27.1691C13.6083 27.1691 13.3722 26.6201 13.3722 26.2276C13.3722 26.1491 13.3719 25.9918 13.4504 25.9132C13.6074 25.5992 14.0794 25.4419 14.3934 25.5989C14.7074 25.6774 14.8648 26.1482 14.7078 26.4622Z" fill="white"/>
</svg>
